<svg version="1.0" xmlns="http://www.w3.org/2000/svg" width="512" height="512" viewBox="0 0 512 512">
    <g transform="translate(0,512) scale(0.1,-0.1)" stroke="none">
        <path d="M2240 4610 c-250 -45 -470 -170 -630 -360 -80 -95 -160 -240 -190
    -345 -25 -85 -25 -285 0 -370 30 -105 110 -250 190 -345 160 -190 380 -315
    630 -360 85 -15 295 -15 380 0 250 45 470 170 630 360 80 95 160 240 190 345
    25 85 25 285 0 370 -30 105 -110 250 -190 345 -160 190 -380 315 -630 360
    -85 15 -295 15 -380 0z m280 -250 c120 -20 220 -70 310 -155 90 -85 140 -185
    155 -310 10 -80 10 -120 0 -200 -15 -125 -65 -225 -155 -310 -85 -90 -185
    -140 -310 -155 -80 -10 -120 -10 -200 0 -125 15 -225 65 -310 155 -85 90
    -140 185 -155 310 -10 80 -10 120 0 200 15 125 65 225 155 310 90 85 185 140
    310 155 80 10 120 10 200 0z"/>

        <path d="M1580 3200 l0 -80 120 0 120 0 0 80 0 80 -120 0 -120 0 0 -80z"/>

        <path d="M1940 3200 l0 -80 360 0 360 0 0 80 0 80 -360 0 -360 0 0 -80z"/>

        <path d="M2820 3200 l0 -80 120 0 120 0 0 80 0 80 -120 0 -120 0 0 -80z"/>

        <path d="M1200 2800 l0 -80 120 0 120 0 0 80 0 80 -120 0 -120 0 0 -80z"/>

        <path d="M1580 2800 l0 -80 760 0 760 0 0 80 0 80 -760 0 -760 0 0 -80z"/>

        <path d="M3500 2800 l0 -80 120 0 120 0 0 80 0 80 -120 0 -120 0 0 -80z"/>

        <path d="M800 2400 l0 -80 120 0 120 0 0 80 0 80 -120 0 -120 0 0 -80z"/>

        <path d="M1200 2400 l0 -80 1160 0 1160 0 0 80 0 80 -1160 0 -1160 0 0 -80z"/>

        <path d="M3880 2400 l0 -80 120 0 120 0 0 80 0 80 -120 0 -120 0 0 -80z"/>

        <path d="M640 2000 l0 -80 840 0 840 0 0 80 0 80 -840 0 -840 0 0 -80z"/>

        <path d="M2680 2000 l0 -80 120 0 120 0 0 80 0 80 -120 0 -120 0 0 -80z"/>

        <path d="M3080 2000 l0 -80 360 0 360 0 0 80 0 80 -360 0 -360 0 0 -80z"/>

        <path d="M1200 1600 l0 -80 120 0 120 0 0 80 0 80 -120 0 -120 0 0 -80z"/>

        <path d="M1580 1600 l0 -80 760 0 760 0 0 80 0 80 -760 0 -760 0 0 -80z"/>

        <path d="M2700 1200 l0 -80 120 0 120 0 0 80 0 80 -120 0 -120 0 0 -80z"/>

        <path d="M3100 1200 l0 -80 360 0 360 0 0 80 0 80 -360 0 -360 0 0 -80z"/>

        <path d="M900 800 l0 -80 520 0 520 0 0 80 0 80 -520 0 -520 0 0 -80z"/>

        <path d="M2300 800 l0 -80 360 0 360 0 0 80 0 80 -360 0 -360 0 0 -80z"/>
    </g>
</svg>